<svg width="24" height="21" viewBox="0 0 24 21" fill="none" xmlns="http://www.w3.org/2000/svg">
<path d="M22.606 7.79382H17.5257L12.8802 0.938883C12.6787 0.646294 12.3393 0.5 11.9999 0.5C11.6605 0.5 11.3211 0.646294 11.1196 0.949333L6.47416 7.79382H1.39386C0.810525 7.79382 0.333252 8.26405 0.333252 8.83878C0.333252 8.93282 0.343858 9.02687 0.375676 9.12092L3.06962 18.8077C3.31356 19.6855 4.13022 20.3333 5.10598 20.3333H18.8939C19.8696 20.3333 20.6863 19.6855 20.9408 18.8077L23.6348 9.12092L23.6666 8.83878C23.6666 8.26405 23.1893 7.79382 22.606 7.79382ZM11.9999 3.40499L14.9696 7.79382H9.03022L11.9999 3.40499ZM18.8939 18.2434L5.11659 18.2539L2.78325 9.88374H21.2272L18.8939 18.2434ZM11.9999 11.9737C10.8333 11.9737 9.87871 12.9141 9.87871 14.0636C9.87871 15.213 10.8333 16.1535 11.9999 16.1535C13.1666 16.1535 14.1211 15.213 14.1211 14.0636C14.1211 12.9141 13.1666 11.9737 11.9999 11.9737Z" fill="#F8F8F8"/>
</svg>
